<?xml version="1.0" encoding="utf-8"?>
<!-- Generator: Adobe Illustrator 16.2.0, SVG Export Plug-In . SVG Version: 6.00 Build 0)  -->
<!DOCTYPE svg PUBLIC "-//W3C//DTD SVG 1.1//EN" "http://www.w3.org/Graphics/SVG/1.1/DTD/svg11.dtd">
<svg version="1.1" id="Layer_1" xmlns="http://www.w3.org/2000/svg" xmlns:xlink="http://www.w3.org/1999/xlink" x="0px" y="0px"
	 width="728.229px" height="474.138px" viewBox="0 0 728.229 474.138" enable-background="new 0 0 728.229 474.138"
	 xml:space="preserve">
<linearGradient id="SVGID_1_" gradientUnits="userSpaceOnUse" x1="246.0669" y1="-188.6284" x2="463.0443" y2="751.2039">
	<stop  offset="0.1591" style="stop-color:#F2F2F2"/>
	<stop  offset="0.3881" style="stop-color:#EEEEEE"/>
	<stop  offset="0.6032" style="stop-color:#E3E3E3"/>
	<stop  offset="0.7942" style="stop-color:#D3D2D2"/>
	<stop  offset="0.9894" style="stop-color:#9E9E9E"/>
</linearGradient>
<rect x="-45.944" y="-121.212" display="none" fill="url(#SVGID_1_)" width="801" height="805"/>
<g>
	<defs>
		<filter id="Adobe_OpacityMaskFilter" filterUnits="userSpaceOnUse" x="233.357" y="362.743" width="184.228" height="16.447">
			<feColorMatrix  type="matrix" values="1 0 0 0 0  0 1 0 0 0  0 0 1 0 0  0 0 0 1 0"/>
		</filter>
	</defs>
	<mask maskUnits="userSpaceOnUse" x="233.357" y="362.743" width="184.228" height="16.447" id="SVGID_2_">
		<g filter="url(#Adobe_OpacityMaskFilter)">
			
				<radialGradient id="SVGID_3_" cx="325.4707" cy="573.8042" r="92.1021" gradientTransform="matrix(1 0 0 0.0893 0 319.7255)" gradientUnits="userSpaceOnUse">
				<stop  offset="0" style="stop-color:#FFFFFF"/>
				<stop  offset="1" style="stop-color:#14130A"/>
			</radialGradient>
			<path fill="url(#SVGID_3_)" d="M417.585,370.965c0,4.547-41.24,8.225-92.114,8.225c-50.877,0-92.114-3.678-92.114-8.225
				c0-4.544,41.237-8.223,92.114-8.223C376.345,362.743,417.585,366.421,417.585,370.965z"/>
		</g>
	</mask>
	<linearGradient id="SVGID_4_" gradientUnits="userSpaceOnUse" x1="325.4946" y1="379.1704" x2="325.448" y2="362.8794">
		<stop  offset="0" style="stop-color:#4D4848"/>
		<stop  offset="0.3539" style="stop-color:#14130A"/>
		<stop  offset="1" style="stop-color:#14130A"/>
	</linearGradient>
	<path opacity="0.33" mask="url(#SVGID_2_)" fill="url(#SVGID_4_)" d="M417.585,370.965c0,4.547-41.24,8.225-92.114,8.225
		c-50.877,0-92.114-3.678-92.114-8.225c0-4.544,41.237-8.223,92.114-8.223C376.345,362.743,417.585,366.421,417.585,370.965z"/>
	<g>
		<linearGradient id="SVGID_5_" gradientUnits="userSpaceOnUse" x1="267.8467" y1="361.5454" x2="384.5452" y2="361.5454">
			<stop  offset="0.0061" style="stop-color:#58595B"/>
			<stop  offset="0.2803" style="stop-color:#757679"/>
			<stop  offset="0.5091" style="stop-color:#88898D"/>
			<stop  offset="1" style="stop-color:#58595B"/>
		</linearGradient>
		<path fill="url(#SVGID_5_)" d="M268.556,360.326v-0.561c0,0.038,0,0.072,0,0.109v0.04c0,2.12,3.753,3.411,12.762,3.411
			c17.434,0,36.314,0,43.224,0c1.748,0,2.729,0,2.729,0c6.911,0,25.793,0,43.227,0c9.007,0,12.155-1,12.184-3h-0.838l0,0H268.556z"
			/>
		<linearGradient id="SVGID_6_" gradientUnits="userSpaceOnUse" x1="325.2998" y1="318.397" x2="325.2998" y2="368.2136">
			<stop  offset="0.0848" style="stop-color:#6D6F73"/>
			<stop  offset="0.127" style="stop-color:#97999C"/>
			<stop  offset="0.1841" style="stop-color:#CCCDCE"/>
			<stop  offset="0.2121" style="stop-color:#E0E1E2"/>
			<stop  offset="0.3152" style="stop-color:#A7A9AC"/>
			<stop  offset="0.3893" style="stop-color:#868789"/>
			<stop  offset="0.4606" style="stop-color:#636363"/>
			<stop  offset="0.5264" style="stop-color:#6E6F6F"/>
			<stop  offset="0.6452" style="stop-color:#8B8D8F"/>
			<stop  offset="0.7394" style="stop-color:#A6AAAD"/>
		</linearGradient>
		<path fill="url(#SVGID_6_)" d="M371.104,347.134c-8.039-8.191-8.342-25.809-8.342-25.809h-36.096h-2.73h-36.097
			c0,0-0.303,17.617-8.341,25.809c-8.039,8.189-20.627,15.191,1.213,15.191c17.432,0,36.314,0,43.225,0c1.747,0,2.73,0,2.73,0
			c6.91,0,25.791,0,43.225,0C391.729,362.326,379.141,355.324,371.104,347.134z"/>
		<radialGradient id="SVGID_7_" cx="380.6582" cy="381.6831" r="42.4201" gradientUnits="userSpaceOnUse">
			<stop  offset="0" style="stop-color:#FFFFFF"/>
			<stop  offset="1" style="stop-color:#FFFFFF;stop-opacity:0"/>
		</radialGradient>
		<path fill="url(#SVGID_7_)" d="M332.48,362.326c4.46-9,18.703-17.86,36.424-19.595c0.813,1.379,1.74,2.62,2.807,3.708
			c7.897,8.045,20.184,15.887-0.097,15.887H332.48z"/>
		
			<radialGradient id="SVGID_8_" cx="504.8818" cy="381.6831" r="42.4201" gradientTransform="matrix(-1 0 0 1 776.0371 0)" gradientUnits="userSpaceOnUse">
			<stop  offset="0" style="stop-color:#FFFFFF"/>
			<stop  offset="1" style="stop-color:#FFFFFF;stop-opacity:0"/>
		</radialGradient>
		<path fill="url(#SVGID_8_)" d="M319.335,362.326c-4.459-9-18.705-17.86-36.426-19.595c-0.813,1.379-1.74,2.62-2.806,3.708
			c-7.897,8.045-20.185,15.887,0.098,15.887H319.335z"/>
		<linearGradient id="SVGID_9_" gradientUnits="userSpaceOnUse" x1="280.2007" y1="362.4429" x2="370.4971" y2="362.4429">
			<stop  offset="0.0061" style="stop-color:#FFFFFF;stop-opacity:0"/>
			<stop  offset="0.5091" style="stop-color:#FFFFFF"/>
			<stop  offset="1" style="stop-color:#FFFFFF;stop-opacity:0"/>
		</linearGradient>
		<path fill="url(#SVGID_9_)" d="M280.201,362.442c7.523-0.126,15.049-0.185,22.574-0.233l22.573-0.069l22.573,0.068l11.287,0.084
			l11.289,0.15l-11.289,0.148l-11.287,0.083l-22.573,0.072l-22.573-0.072C295.25,362.625,287.724,362.567,280.201,362.442z"/>
		<linearGradient id="SVGID_10_" gradientUnits="userSpaceOnUse" x1="134.1387" y1="317.4253" x2="533.1148" y2="291.2729">
			<stop  offset="0" style="stop-color:#78797D"/>
			<stop  offset="0.3173" style="stop-color:#737478"/>
			<stop  offset="0.4909" style="stop-color:#6D6F73"/>
			<stop  offset="1" style="stop-color:#6D6F73"/>
		</linearGradient>
		<path fill="url(#SVGID_10_)" d="M140.556,310.269c0,6.031,5.664,11.057,11.695,11.057h169.258h5.762h169.26
			c6.029,0,11.025-5.025,11.025-11.057v-20.943h-367V310.269z"/>
		<path fill="#231F20" d="M496.53,70.326h-169.26h-5.762H152.251c-6.032,0-11.695,3.989-11.695,10.02v208.98h367V80.345
			C507.556,74.315,502.56,70.326,496.53,70.326z M491.556,273.326h-335v-189h335V273.326z"/>
		<linearGradient id="SVGID_11_" gradientUnits="userSpaceOnUse" x1="134.2183" y1="317.4175" x2="533.1091" y2="291.2707">
			<stop  offset="0" style="stop-color:#898A8F"/>
			<stop  offset="0.0499" style="stop-color:#909196"/>
			<stop  offset="0.3137" style="stop-color:#B1B2B6"/>
			<stop  offset="0.5663" style="stop-color:#C8CACD"/>
			<stop  offset="0.801" style="stop-color:#D6D8DB"/>
			<stop  offset="1" style="stop-color:#DBDDE0"/>
		</linearGradient>
		<path fill="url(#SVGID_11_)" d="M140.556,309.056c0,6.03,5.664,12.27,11.695,12.27h169.258h5.762h169.26
			c6.029,0,11.025-6.239,11.025-12.27v-19.73h-367V309.056z"/>
	</g>
</g>
<rect x="156.556" y="84.162" fill="#CCC8C8" width="335" height="190.634"/>
<rect x="39.896" y="216.475" fill="#CCC8C8" width="98.805" height="134.029"/>
<path fill="#231F20" d="M152.14,208.984c0-3.607-2.923-6.531-6.531-6.531H33.998c-3.607,0-6.531,2.924-6.531,6.531v148.738
	c0,3.607,2.924,6.531,6.531,6.531h111.611c3.608,0,6.531-2.924,6.531-6.531V208.984z M139.307,350.503H39.843V216.662h99.464
	V350.503z"/>
<defs>
	<filter id="Adobe_OpacityMaskFilter_1_" filterUnits="userSpaceOnUse" x="19.616" y="363.983" width="139.366" height="13.965">
		<feColorMatrix  type="matrix" values="1 0 0 0 0  0 1 0 0 0  0 0 1 0 0  0 0 0 1 0"/>
	</filter>
</defs>
<mask maskUnits="userSpaceOnUse" x="19.616" y="363.983" width="139.366" height="13.965" id="SVGID_12_">
	<g filter="url(#Adobe_OpacityMaskFilter_1_)">
		
			<radialGradient id="SVGID_13_" cx="89.2988" cy="353.5972" r="69.6838" gradientTransform="matrix(1 0 0 0.1002 0 335.5348)" gradientUnits="userSpaceOnUse">
			<stop  offset="0" style="stop-color:#FFFFFF"/>
			<stop  offset="1" style="stop-color:#14130A"/>
		</radialGradient>
		<path fill="url(#SVGID_13_)" d="M158.982,370.965c0,3.859-31.197,6.982-69.682,6.982c-38.489,0-69.684-3.123-69.684-6.982
			c0-3.86,31.195-6.982,69.684-6.982C127.785,363.983,158.982,367.105,158.982,370.965z"/>
	</g>
</mask>
<linearGradient id="SVGID_14_" gradientUnits="userSpaceOnUse" x1="89.3188" y1="377.9321" x2="89.2793" y2="364.1007">
	<stop  offset="0" style="stop-color:#4D4848"/>
	<stop  offset="0.3539" style="stop-color:#14130A"/>
	<stop  offset="1" style="stop-color:#14130A"/>
</linearGradient>
<path opacity="0.33" mask="url(#SVGID_12_)" fill="url(#SVGID_14_)" d="M158.982,370.965c0,3.859-31.197,6.982-69.682,6.982
	c-38.489,0-69.684-3.123-69.684-6.982c0-3.86,31.195-6.982,69.684-6.982C127.785,363.983,158.982,367.105,158.982,370.965z"/>
<defs>
	<filter id="Adobe_OpacityMaskFilter_2_" filterUnits="userSpaceOnUse" x="162.882" y="367.725" width="76" height="6.481">
		<feColorMatrix  type="matrix" values="1 0 0 0 0  0 1 0 0 0  0 0 1 0 0  0 0 0 1 0"/>
	</filter>
</defs>
<mask maskUnits="userSpaceOnUse" x="162.882" y="367.725" width="76" height="6.481" id="SVGID_15_">
	<g filter="url(#Adobe_OpacityMaskFilter_2_)">
		
			<radialGradient id="SVGID_16_" cx="210.6855" cy="573.7983" r="36.2961" gradientTransform="matrix(1.0468 0 0 0.0893 -19.6635 319.7255)" gradientUnits="userSpaceOnUse">
			<stop  offset="0" style="stop-color:#FFFFFF"/>
			<stop  offset="1" style="stop-color:#14130A"/>
		</radialGradient>
		<ellipse fill="url(#SVGID_16_)" cx="200.882" cy="370.966" rx="38" ry="3.24"/>
	</g>
</mask>
<linearGradient id="SVGID_17_" gradientUnits="userSpaceOnUse" x1="200.8911" y1="374.2007" x2="200.8727" y2="367.78">
	<stop  offset="0" style="stop-color:#4D4848"/>
	<stop  offset="0.3539" style="stop-color:#14130A"/>
	<stop  offset="1" style="stop-color:#14130A"/>
</linearGradient>
<ellipse opacity="0.33" mask="url(#SVGID_15_)" fill="url(#SVGID_17_)" cx="200.882" cy="370.966" rx="38" ry="3.24"/>
<path fill="#231F20" d="M228.006,261.316c0-4.215-3.417-7.632-7.632-7.632h-38.316c-4.216,0-7.633,3.417-7.633,7.632v98.128
	c0,4.215,3.417,7.632,7.633,7.632h38.316c4.215,0,7.632-3.417,7.632-7.632V261.316z M206.822,263.692
	c0,0.666-0.54,1.207-1.207,1.207h-8.177c-0.667,0-1.207-0.541-1.207-1.207v-0.078c0-0.666,0.54-1.207,1.207-1.207h8.177
	c0.667,0,1.207,0.541,1.207,1.207V263.692z M224.269,350.876h-45.482v-80.993h45.482V350.876z"/>
<rect x="178.798" y="269.883" fill="#CCC8C8" width="45.47" height="80.993"/>
<linearGradient id="SVGID_18_" gradientUnits="userSpaceOnUse" x1="174.2959" y1="302.1372" x2="227.9678" y2="302.1372">
	<stop  offset="0" style="stop-color:#FFFFFF;stop-opacity:0"/>
	<stop  offset="1" style="stop-color:#FFFFFF"/>
</linearGradient>
<path opacity="0.6" fill="url(#SVGID_18_)" d="M208.556,253.684h12.326c0,0,4.819,0.379,6.916,5.583l0.168,87.605
	c0,0,0.189,3.282-3.076,3.718c-3.365-0.243-50.594,0-50.594,0"/>
<rect x="174.296" y="98.326" fill="#FF6A58" width="309.621" height="15"/>
<rect x="313.202" y="151.458" fill="#FF6A58" width="170.715" height="5.5"/>
<g>
	<g>
		<path fill-rule="evenodd" clip-rule="evenodd" fill="#717272" d="M200.216,245.805c-1.149-1.826-1.901-3.681-1.948-5.445
			c-0.216-8.168,9.5-8.911,16.41-11.634c6.91-2.721,3.732-9.477,3.67-15.841h17.78c-0.062,6.365-3.24,13.12,3.67,15.841
			c6.909,2.724,16.626,3.466,16.41,11.634c-0.047,1.764-0.799,3.62-1.948,5.445H200.216z"/>
		<path fill-rule="evenodd" clip-rule="evenodd" fill="#717272" d="M202.703,235.684c2.675-2.637,8.371-3.596,13.458-5.391
			c5.089-1.795,5.818-9.607,5.413-14.28l11.359-0.802c-0.405,4.672-0.109,13.006,4.979,15.082s10.788,2.721,13.866,5.215
			c3.401,2.753,2.461,6.863,0.503,10.297l-49.922-0.044C200.537,242.191,198.996,239.339,202.703,235.684z"/>
		<path fill-rule="evenodd" clip-rule="evenodd" fill="#CCC8C8" d="M218.492,228.805c1.695-1.707,2.566-4.367,2.942-7.05
			c1.32-2.042,2.8-4.266,3.934-6.01l3.579-0.252c1.145,1.74,2.682,4.018,4.056,6.108c0.34,2.832,1.181,5.635,2.946,7.384
			c-1.103,5.258-3.31,13.373-7.335,16.8l-2.751-0.003C221.79,242.314,219.579,234.055,218.492,228.805z"/>
		<path fill-rule="evenodd" clip-rule="evenodd" fill="#717272" d="M223.67,245.777c1.209-5.205,3.023-5.618,0.452-8.574
			c-2.571-2.957,0.063-7.001,3.116-7.001c3.053,0,5.722,3.934,3.151,6.89c-2.571,2.956-0.811,3.48,0.398,8.686H223.67z"/>
		<path fill="#717272" d="M242.46,203.925c0.973,0.98,1.563,2.355,1.807,3.848c0.213,1.302,0.167,2.707-0.114,4.007
			c-0.289,1.335-0.831,2.586-1.602,3.54c-0.619,0.767-1.382,1.347-2.28,1.648c-1.262,2.607-3.022,4.876-5.235,6.486
			c-2.191,1.594-4.805,2.542-7.799,2.542v-2.527c2.436,0,4.552-0.764,6.317-2.05c1.988-1.446,3.557-3.558,4.661-6.001
			c0.161-0.393,0.515-0.696,0.964-0.769c0.54-0.088,1.014-0.422,1.407-0.909c0.515-0.638,0.887-1.521,1.099-2.494
			c0.218-1.007,0.255-2.083,0.094-3.07c-0.183-1.116-0.613-2.095-1.314-2.661l0.002-0.002c-0.259-0.208-0.435-0.516-0.465-0.873
			c-0.331-3.677-1.634-7.126-4.029-9.518c-2.048-2.048-4.933-3.335-8.735-3.335v-2.528c4.532,0,8.009,1.573,10.513,4.076
			C240.478,196.06,242.006,199.871,242.46,203.925z M227.238,225.997c-2.992,0-5.605-0.947-7.796-2.542
			c-2.215-1.61-3.973-3.879-5.236-6.486c-0.898-0.302-1.662-0.882-2.281-1.649c-0.771-0.955-1.312-2.205-1.601-3.539
			c-0.282-1.3-0.328-2.705-0.115-4.008c0.244-1.492,0.835-2.868,1.808-3.847c0.453-4.054,1.982-7.863,4.708-10.588
			c2.504-2.503,5.982-4.076,10.513-4.076v2.528c-3.801,0-6.687,1.287-8.735,3.335c-2.38,2.378-3.684,5.802-4.021,9.458
			c-0.014,0.352-0.174,0.696-0.47,0.935c-0.702,0.565-1.131,1.544-1.313,2.661c-0.162,0.985-0.125,2.063,0.093,3.069
			c0.211,0.974,0.584,1.856,1.098,2.494c0.393,0.487,0.868,0.822,1.407,0.91v0c0.404,0.067,0.769,0.327,0.948,0.729
			c1.104,2.461,2.679,4.587,4.678,6.041c1.765,1.285,3.881,2.049,6.316,2.049V225.997z"/>
		<path fill-rule="evenodd" clip-rule="evenodd" fill="#CCC8C8" d="M241.255,204.534c3.239,2.613,2.1,10.71-1.873,11.36
			c-2.266,5.052-6.431,8.839-12.144,8.839c-5.712,0-9.875-3.787-12.144-8.839c-3.972-0.65-5.113-8.747-1.873-11.36
			c0.663-7.405,5.063-14.009,14.017-14.009S240.592,197.129,241.255,204.534z"/>
		<path fill-rule="evenodd" clip-rule="evenodd" fill="#717272" d="M227.043,190.526c-5.854,0.127-11.355,8.571-11.048,15.509
			c0.161,3.631-0.208,2.685-0.865,0.759c-0.349-1.025-0.886-2.035-1.693-2.039c-0.57-0.001-0.99,0.505-1.168,0.887
			c-0.459,0.977-1.431,0.001-1.21-1.776c0.688-5.549,6.315-13.375,12.111-14.1c2.302-0.289,6.092-0.292,8.269,0.014
			c5.755,0.814,11.313,8.573,11.996,14.085c0.22,1.778-0.751,2.753-1.209,1.776c-0.179-0.382-0.599-0.889-1.169-0.887
			c-0.808,0.004-1.343,1.014-1.693,2.039c-0.656,1.926-0.967,2.873-0.806-0.759c0.304-6.881-5.168-15.245-10.963-15.505
			L227.043,190.526z"/>
		<path fill="#717272" d="M227.136,227.916c-3.497,0.143-6.292-2.203-8.356-4.807c-2.955-3.728-5.92-9.257-3.848-18.354
			c2.409-10.575,0.844-3.334,0.967,0.375c0.1,2.544-0.045,11.175,4.254,15.544c1.085,1.103,3.199,2.575,4.83,2.647
			c0.712-0.076,1.269-0.906,2.03-0.906c0.042,0,0.082,0.002,0.123,0.007c0.04-0.005,0.081-0.007,0.122-0.007
			c0.762,0,1.319,0.83,2.03,0.906c1.631-0.072,3.746-1.544,4.83-2.647c4.3-4.369,4.154-13,4.254-15.544
			c0.122-3.709-1.442-10.95,0.967-0.375c2.071,9.097-0.892,14.626-3.848,18.354C233.428,225.713,230.633,228.059,227.136,227.916z"
			/>
		<path fill-rule="evenodd" clip-rule="evenodd" fill="#717272" d="M227.252,244.23c1.602,0,2.908-1.664,2.908-3.705
			c0-2.042-1.307-3.706-2.908-3.706s-2.908,1.664-2.908,3.706C224.345,242.566,225.651,244.23,227.252,244.23z"/>
		<path fill-rule="evenodd" clip-rule="evenodd" fill="#717272" d="M215.941,205.507c2.233-6.022,4.857-9.312,8.843-8.464
			c3.813,2.585,11.521,12.148,17.735,10.433c1.877-7.688-2.968-10.121-3.54-10.479c-0.297-0.186-5.276-7.038-11.146-7.443
			C222.397,189.179,216.031,194.778,215.941,205.507z"/>
	</g>
	<g>
		<path fill-rule="evenodd" clip-rule="evenodd" fill="#717272" d="M218.155,171.822c19.184,0,34.831-10.081,34.831-22.44
			c0-12.359-15.647-22.439-34.831-22.439c-19.184,0-34.83,10.08-34.83,22.439C183.325,161.741,198.972,171.822,218.155,171.822z"/>
		<path fill-rule="evenodd" clip-rule="evenodd" fill="#717272" d="M215.599,186.682c-3.783-7.991-4.531-18.181-2.876-25.261
			c0.113,1.114-9.854-0.185-9.688,0.856C204.544,171.765,208.342,178.49,215.599,186.682z"/>
	</g>
</g>
<g>
	<path fill="#717272" d="M88.405,247.677c-10.233,0-18.536,8.287-18.536,18.53c0,6.235,3.1,11.725,7.832,15.08H99.11
		c4.718-3.355,7.824-8.845,7.824-15.08C106.938,255.969,98.637,247.677,88.405,247.677z M88.396,278.17
		c-1.077,0-1.935-3.219-1.935-7.189c0-3.971,0.861-7.191,1.935-7.191c1.08,0,1.958,3.217,1.958,7.191
		C90.357,274.951,89.481,278.17,88.396,278.17z"/>
	<path fill="#717272" d="M77.762,296.572h5.016c0.666,1.57,2.873,2.755,5.625,2.755s4.958-1.185,5.622-2.755h5.027V283.46h-21.29
		V296.572z M80.088,286.238h16.631v2.35H80.088V286.238z M80.088,290.941h16.631v2.355H80.088V290.941z"/>
	<path fill="#717272" d="M86.053,231.706h4.709v11.061h-4.709V231.706z M61.759,244.639l3.324-3.328l7.824,7.814l-3.318,3.331
		L61.759,244.639z M103.896,249.127l7.824-7.822l3.327,3.328l-7.827,7.822L103.896,249.127z"/>
</g>
<rect x="313.202" y="156.958" fill="#AEAFAF" width="170.715" height="64.515"/>
<linearGradient id="SVGID_19_" gradientUnits="userSpaceOnUse" x1="302.1421" y1="179.479" x2="507.4951" y2="179.479">
	<stop  offset="0" style="stop-color:#FFFFFF;stop-opacity:0"/>
	<stop  offset="1" style="stop-color:#FFFFFF"/>
</linearGradient>
<path opacity="0.6" fill="url(#SVGID_19_)" d="M432.931,70.015h63.6c0,0,12.188,0.094,10.864,12.512l-0.387,206.416H302.142"/>
<g>
	<defs>
		<filter id="Adobe_OpacityMaskFilter_3_" filterUnits="userSpaceOnUse" x="388.812" y="363.715" width="339.418" height="14.501">
			<feColorMatrix  type="matrix" values="1 0 0 0 0  0 1 0 0 0  0 0 1 0 0  0 0 0 1 0"/>
		</filter>
	</defs>
	<mask maskUnits="userSpaceOnUse" x="388.812" y="363.715" width="339.418" height="14.501" id="SVGID_20_">
		<g filter="url(#Adobe_OpacityMaskFilter_3_)">
			
				<radialGradient id="SVGID_21_" cx="431.3916" cy="714.9175" r="68.3965" gradientTransform="matrix(2.4814 0 0 0.106 -511.935 295.1844)" gradientUnits="userSpaceOnUse">
				<stop  offset="0" style="stop-color:#FFFFFF"/>
				<stop  offset="1" style="stop-color:#14130A"/>
			</radialGradient>
			<path fill="url(#SVGID_21_)" d="M728.229,370.965c0,4.009-75.979,7.251-169.71,7.251c-93.733,0-169.708-3.242-169.708-7.251
				c0-4.007,75.975-7.25,169.708-7.25C652.25,363.715,728.229,366.958,728.229,370.965z"/>
		</g>
	</mask>
	<linearGradient id="SVGID_22_" gradientUnits="userSpaceOnUse" x1="558.541" y1="378.2124" x2="558.4998" y2="363.8232">
		<stop  offset="0" style="stop-color:#4D4848"/>
		<stop  offset="0.3539" style="stop-color:#14130A"/>
		<stop  offset="1" style="stop-color:#14130A"/>
	</linearGradient>
	<path opacity="0.33" mask="url(#SVGID_20_)" fill="url(#SVGID_22_)" d="M728.229,370.965c0,4.009-75.979,7.251-169.71,7.251
		c-93.733,0-169.708-3.242-169.708-7.251c0-4.007,75.975-7.25,169.708-7.25C652.25,363.715,728.229,366.958,728.229,370.965z"/>
	<path d="M672.293,346.173c0,3.905-2.356,7.072-5.265,7.072H448.034c-2.908,0-5.266-3.167-5.266-7.072V205.677
		c0-3.905,2.357-7.071,5.266-7.071h218.994c2.908,0,5.265,3.166,5.265,7.071V346.173z"/>
	<rect x="451.919" y="207.094" fill="#CCC8C8" width="211.85" height="130.601"/>
	<g>
		<g>
			<path fill="#5F6767" d="M403.678,355.378c0,0-1.91,3.557,11.659,6.521h284.039c0,0,9.502-0.609,12.005-5.089l0.017-2.453
				L403.678,355.378z"/>
			<linearGradient id="SVGID_23_" gradientUnits="userSpaceOnUse" x1="403.5459" y1="352.6304" x2="711.5166" y2="352.6304">
				<stop  offset="0" style="stop-color:#999C9D"/>
				<stop  offset="9.591131e-004" style="stop-color:#A5A7A9"/>
				<stop  offset="0.0037" style="stop-color:#C2C3C5"/>
				<stop  offset="0.0067" style="stop-color:#D9D8DA"/>
				<stop  offset="0.0099" style="stop-color:#E9E7EA"/>
				<stop  offset="0.0134" style="stop-color:#F2F0F3"/>
				<stop  offset="0.0183" style="stop-color:#F5F3F6"/>
				<stop  offset="0.0488" style="stop-color:#DFE1E3"/>
				<stop  offset="0.189" style="stop-color:#D1D1D1"/>
				<stop  offset="0.5061" style="stop-color:#E3E5E7"/>
				<stop  offset="0.872" style="stop-color:#D1D1D1"/>
				<stop  offset="0.9512" style="stop-color:#DFE1E3"/>
				<stop  offset="0.9878" style="stop-color:#F5F3F6"/>
				<stop  offset="1" style="stop-color:#999C9D"/>
			</linearGradient>
			<path fill="url(#SVGID_23_)" d="M403.745,348.199h307.753v7.903c0,0,0.46,1.055-3.162,0.791H406.643c0,0-2.834,0.791-3.097-1.054
				L403.745,348.199z"/>
			<path fill="#5F6767" d="M697.202,352.811c0,0.308-0.204,0.556-0.455,0.556h-10.473c-0.252,0-0.455-0.248-0.455-0.556l0,0
				c0-0.308,0.203-0.556,0.455-0.556h10.473C696.998,352.255,697.202,352.503,697.202,352.811L697.202,352.811z"/>
		</g>
		<linearGradient id="SVGID_24_" gradientUnits="userSpaceOnUse" x1="557.5381" y1="352.6245" x2="557.5381" y2="348.2622">
			<stop  offset="0.3415" style="stop-color:#676B6C"/>
			<stop  offset="0.3611" style="stop-color:#707475"/>
			<stop  offset="0.4574" style="stop-color:#989B9C"/>
			<stop  offset="0.5524" style="stop-color:#B7B9BB"/>
			<stop  offset="0.6444" style="stop-color:#CDCFD1"/>
			<stop  offset="0.7321" style="stop-color:#DADDDE"/>
			<stop  offset="0.811" style="stop-color:#DFE1E3"/>
			<stop  offset="0.9817" style="stop-color:#E3E5E7"/>
		</linearGradient>
		<path fill="url(#SVGID_24_)" d="M536.718,348.262c0,0-1.186,3.952,2.768,4.348h35.701c0,0,3.799,0.493,3.294-4.216
			L536.718,348.262z"/>
		<g>
			<linearGradient id="SVGID_25_" gradientUnits="userSpaceOnUse" x1="537.5635" y1="352.2417" x2="537.5635" y2="348.1626">
				<stop  offset="0.0244" style="stop-color:#5F6767"/>
				<stop  offset="0.4756" style="stop-color:#676B6C"/>
				<stop  offset="0.5137" style="stop-color:#717576"/>
				<stop  offset="0.6192" style="stop-color:#878A8B"/>
				<stop  offset="0.7202" style="stop-color:#949899"/>
				<stop  offset="0.811" style="stop-color:#999C9D"/>
			</linearGradient>
			<path fill="url(#SVGID_25_)" d="M536.916,348.257h0.025l0.015-0.093l-0.436-0.002c0,0-1.075,3.433,2.251,4.079
				C535.928,351.41,536.916,348.257,536.916,348.257z"/>
			<linearGradient id="SVGID_26_" gradientUnits="userSpaceOnUse" x1="558.7393" y1="352.4409" x2="558.7393" y2="348.3823">
				<stop  offset="0.0244" style="stop-color:#5F6767"/>
				<stop  offset="0.4756" style="stop-color:#676B6C"/>
				<stop  offset="0.5137" style="stop-color:#717576"/>
				<stop  offset="0.6192" style="stop-color:#878A8B"/>
				<stop  offset="0.7202" style="stop-color:#949899"/>
				<stop  offset="0.811" style="stop-color:#999C9D"/>
			</linearGradient>
			<path fill="url(#SVGID_26_)" d="M578.678,348.384l-0.385-0.002v0.095c0.278,4.448-3.305,3.842-3.305,3.842h-35.701
				c-0.185-0.018-0.353-0.044-0.516-0.077c0.269,0.079,0.568,0.14,0.91,0.171h35.702
				C575.384,352.413,579.073,353.043,578.678,348.384z"/>
			<linearGradient id="SVGID_27_" gradientUnits="userSpaceOnUse" x1="578.291" y1="348.4771" x2="578.291" y2="348.3823">
				<stop  offset="0.0244" style="stop-color:#5F6767"/>
				<stop  offset="0.4756" style="stop-color:#676B6C"/>
				<stop  offset="0.5137" style="stop-color:#717576"/>
				<stop  offset="0.6192" style="stop-color:#878A8B"/>
				<stop  offset="0.7202" style="stop-color:#949899"/>
				<stop  offset="0.811" style="stop-color:#999C9D"/>
			</linearGradient>
			<path fill="url(#SVGID_27_)" d="M578.293,348.477v-0.095h-0.004C578.29,348.415,578.29,348.444,578.293,348.477z"/>
		</g>
	</g>
	<path fill="#717272" d="M515.653,268.909v2.886h-43.277h-2.885v-2.886v-43.277h2.885v43.277H515.653z M509.883,225.632
		l-11.357,1.856l2.73,3.339l-24.022,19.655l1.826,2.231l24.024-19.655l2.73,3.336L509.883,225.632z M506.747,242.092l-2.634-3.22
		v27.153h5.77v-32.23L506.747,242.092z M486.802,250.108v15.917h5.771v-20.636L486.802,250.108z M478.652,256.774l-0.506-0.62v9.87
		h5.771v-13.558L478.652,256.774z M495.457,243.027v22.997h5.771v-27.719L495.457,243.027z"/>
	<rect x="520.185" y="225.026" fill="#FF6A58" width="131.371" height="7.969"/>
	<rect x="520.185" y="242.258" fill="#FF6A58" width="131.371" height="3.609"/>
	<rect x="520.185" y="245.868" fill="#AEAFAF" width="131.371" height="32.936"/>
	<linearGradient id="SVGID_28_" gradientUnits="userSpaceOnUse" x1="520.1846" y1="268.3013" x2="672.418" y2="268.3013">
		<stop  offset="0" style="stop-color:#FFFFFF;stop-opacity:0"/>
		<stop  offset="1" style="stop-color:#FFFFFF"/>
	</linearGradient>
	<path opacity="0.6" fill="url(#SVGID_28_)" d="M617.142,198.436h47.148c0,0,9.035,0.06,8.054,7.985l-0.286,131.745H520.185"/>
</g>
<g>
	<rect x="48.595" y="321.326" fill="#FF6A58" width="81.406" height="3.965"/>
	<rect x="48.595" y="323.869" fill="#AEAFAF" width="81.406" height="19.693"/>
</g>
<linearGradient id="SVGID_29_" gradientUnits="userSpaceOnUse" x1="35.5898" y1="282.8257" x2="152.3149" y2="282.8257">
	<stop  offset="0" style="stop-color:#FFFFFF;stop-opacity:0"/>
	<stop  offset="1" style="stop-color:#FFFFFF"/>
</linearGradient>
<path opacity="0.6" fill="url(#SVGID_29_)" d="M109.932,201.978h36.151c0,0,6.928,0.068,6.175,9.24l-0.21,146.252
	c0,0,0.413,5.477-6.674,6.203c-7.302-0.404-109.783,0-109.783,0"/>
<path fill="#717272" d="M188.86,278.194c1.402-1.402,3.338-2.269,5.476-2.269v7.744L188.86,278.194z M195.221,278.138v7.743
	l-5.475-5.475c-1.402,1.402-2.269,3.337-2.269,5.475c0,4.275,3.468,7.742,7.743,7.742s7.743-3.467,7.743-7.742
	S199.496,278.138,195.221,278.138z"/>
<g>
	<rect x="181.182" y="296.579" fill="#FF6A58" width="40.703" height="1.982"/>
	<rect x="181.182" y="311.826" fill="#FF6A58" width="40.703" height="1.982"/>
	<rect x="181.182" y="317.326" fill="#FF6A58" width="40.703" height="1.982"/>
	<rect x="181.182" y="322.826" fill="#FF6A58" width="40.703" height="1.982"/>
	<rect x="181.182" y="328.326" fill="#FF6A58" width="40.703" height="1.982"/>
	<rect x="181.182" y="297.85" fill="#AEAFAF" width="40.703" height="9.847"/>
</g>
</svg>
